<?xml version="1.0" standalone="no"?>
<!DOCTYPE svg PUBLIC "-//W3C//DTD SVG 20010904//EN"
 "http://www.w3.org/TR/2001/REC-SVG-20010904/DTD/svg10.dtd">
<svg version="1.0" xmlns="http://www.w3.org/2000/svg"
 width="500.000000pt" height="500.000000pt" viewBox="0 0 500.000000 500.000000"
 preserveAspectRatio="xMidYMid meet">
<g transform="translate(0.000000,500.000000) scale(0.100000,-0.100000)"
fill="#000000" stroke="none">
<path d="M2338 4704 c-2 -1 -19 -5 -38 -8 -19 -3 -62 -14 -95 -25 -33 -11 -73
-22 -88 -25 -27 -5 -60 -18 -147 -59 -46 -22 -102 -54 -171 -99 -65 -42 -249
-214 -249 -233 0 -8 -11 -26 -24 -42 -12 -15 -69 -95 -125 -178 -56 -82 -114
-167 -129 -189 -15 -21 -43 -62 -62 -91 -19 -29 -53 -79 -75 -111 -22 -33 -44
-66 -50 -75 -22 -34 -65 -95 -84 -119 -11 -14 -21 -29 -21 -34 0 -5 -11 -24
-25 -42 -14 -18 -25 -36 -25 -40 0 -4 -39 -66 -88 -138 -48 -72 -91 -138 -97
-147 -29 -48 -195 -290 -227 -332 -21 -27 -38 -55 -38 -62 0 -7 -7 -19 -16
-26 -19 -15 -134 -187 -134 -200 0 -4 -25 -45 -55 -89 -30 -44 -55 -84 -55
-87 0 -4 -6 -14 -14 -22 -12 -14 -109 -197 -111 -211 -1 -3 -12 -39 -25 -80
-13 -41 -25 -78 -26 -82 -1 -5 -2 -9 -4 -10 -4 -6 -10 -44 -14 -84 -2 -23 -6
-46 -9 -51 -8 -13 -7 -283 1 -283 4 0 8 -24 8 -53 1 -33 17 -97 43 -172 22
-66 42 -124 44 -130 11 -40 100 -190 162 -275 11 -15 29 -40 39 -56 28 -42 98
-114 111 -114 6 0 21 -14 33 -30 13 -17 27 -30 32 -30 6 0 38 -20 73 -44 55
-38 123 -79 137 -81 3 0 27 -11 54 -23 27 -12 50 -22 52 -22 1 0 13 -4 26 -9
13 -5 25 -9 28 -10 3 0 30 -8 60 -17 59 -18 66 -19 150 -30 30 -4 60 -11 66
-16 13 -9 2710 -12 2726 -2 5 4 29 8 51 10 59 4 138 22 152 34 6 5 14 7 18 4
3 -3 23 0 44 7 21 7 40 14 43 14 3 1 19 7 35 14 17 7 37 14 46 16 9 2 39 15
68 29 28 15 53 26 56 26 3 0 28 16 55 35 27 19 53 35 57 35 17 0 193 158 193
174 0 5 11 21 24 35 35 37 93 119 118 168 12 24 26 43 30 43 4 0 8 4 8 10 0 5
15 41 34 80 19 38 32 70 30 70 -2 0 3 17 11 37 46 110 55 174 55 409 0 196 -3
237 -21 312 -12 48 -28 96 -35 107 -7 11 -13 22 -13 25 1 30 -81 187 -162 306
-37 55 -74 116 -83 135 -9 19 -40 68 -70 109 -30 41 -64 91 -75 110 -11 19
-51 79 -90 133 -69 97 -70 99 -55 125 32 57 60 100 98 152 21 29 39 58 40 64
1 7 12 26 24 43 12 17 22 34 22 37 0 3 9 25 20 49 25 53 71 217 64 229 -3 4
-1 8 4 8 13 0 19 164 10 265 -10 99 -67 307 -89 320 -5 4 -9 15 -9 25 0 10 -3
20 -7 22 -5 2 -21 29 -38 61 -49 96 -111 168 -236 275 -55 48 -151 114 -169
117 -3 0 -30 12 -60 27 -53 25 -106 44 -146 52 -10 3 -32 10 -49 17 -23 10
-193 13 -777 15 -411 0 -749 0 -750 -2z m1387 -512 c28 -7 62 -14 76 -16 30
-5 108 -45 159 -82 31 -22 161 -199 157 -214 -1 -3 4 -15 11 -27 7 -13 10 -23
7 -23 -4 0 -3 -5 1 -12 4 -7 9 -24 11 -38 1 -14 6 -43 11 -65 4 -22 4 -60 -1
-85 -4 -25 -10 -56 -13 -70 -14 -76 -82 -201 -221 -408 -35 -52 -63 -96 -63
-98 0 -3 -17 -28 -38 -57 -21 -29 -69 -97 -107 -152 -38 -55 -83 -120 -100
-144 -16 -23 -34 -50 -40 -59 -46 -73 -117 -182 -134 -203 -11 -14 -31 -46
-44 -70 -33 -61 -51 -93 -57 -99 -3 -3 -20 -27 -37 -55 -18 -27 -38 -57 -46
-65 -13 -14 -118 -168 -142 -209 -5 -9 -22 -32 -37 -52 -16 -20 -28 -40 -28
-46 0 -5 -11 -20 -25 -33 -14 -13 -25 -27 -25 -32 0 -5 -14 -28 -30 -51 -17
-23 -56 -80 -87 -127 -31 -47 -67 -98 -80 -114 -13 -16 -22 -35 -19 -42 3 -8
1 -14 -4 -14 -10 0 -15 2761 -6 2771 10 10 904 2 951 -9z m-1472 -55 c-2 -4
-3 -748 -3 -1654 l0 -1648 -578 0 c-344 0 -583 4 -592 10 -8 5 -26 11 -39 13
-47 6 -167 72 -243 132 -43 34 -78 65 -78 69 0 4 -19 28 -41 52 -23 24 -48 58
-56 74 -7 17 -22 44 -31 60 -19 32 -50 109 -57 144 -3 11 -7 31 -10 43 -3 13
-7 49 -10 80 -3 31 -6 61 -7 65 0 4 2 19 5 33 3 14 8 45 11 70 3 25 9 62 14
82 14 55 87 200 127 252 19 25 43 62 53 83 11 21 29 47 41 57 12 11 21 25 21
32 0 7 3 14 8 16 8 3 98 134 123 178 9 16 30 45 47 65 18 20 32 43 32 53 0 9
20 44 44 77 25 33 44 63 43 67 -1 3 8 17 19 30 12 13 34 43 50 67 70 107 108
163 249 371 165 243 201 298 211 320 4 8 22 36 41 61 18 26 33 50 33 55 0 4 7
16 17 26 9 10 21 27 27 37 6 11 51 79 101 153 89 133 236 296 286 318 13 6 44
23 69 39 40 25 79 35 73 18z m1847 -1739 c0 -5 39 -65 88 -134 48 -69 96 -140
107 -158 11 -18 33 -53 50 -77 56 -83 99 -159 90 -159 -4 0 3 -13 15 -30 12
-16 19 -30 15 -30 -3 0 -1 -9 5 -20 6 -12 13 -36 14 -54 2 -19 7 -39 11 -46 6
-10 18 -112 16 -135 -1 -5 -4 -32 -7 -60 -3 -27 -8 -57 -11 -65 -3 -8 -8 -26
-10 -40 -6 -39 -52 -151 -74 -178 -10 -14 -19 -30 -19 -37 0 -30 -235 -255
-266 -255 -4 0 -15 -6 -23 -14 -9 -8 -27 -17 -41 -20 -14 -3 -54 -16 -90 -28
-65 -23 -71 -23 -520 -21 -250 0 -456 1 -458 2 -1 1 16 27 38 59 23 31 54 77
70 102 16 25 55 84 87 131 182 270 260 389 281 429 13 25 34 56 47 70 12 14
31 41 40 60 10 19 32 53 49 75 17 22 36 47 41 57 6 9 55 83 110 164 55 82 102
153 104 159 2 5 7 12 11 15 4 3 24 32 46 64 61 93 107 160 129 188 18 24 21
25 38 11 9 -9 17 -20 17 -25z"/>
</g>
</svg>
